<svg width="993" height="459" viewBox="0 0 993 459" fill="none" xmlns="http://www.w3.org/2000/svg">
<path d="M236.519 458.619C192.077 458.619 151.896 448.61 115.977 428.591C80.6661 407.965 52.3569 380.363 31.0489 345.784C10.3496 310.599 0 271.471 0 228.4C0 185.328 10.3496 146.807 31.0489 112.835C51.7481 78.2565 80.0573 50.9577 115.977 30.9386C151.896 10.3129 191.772 0 235.606 0C280.657 0 320.838 10.3129 356.149 30.9386C392.068 50.9577 420.377 78.2565 441.076 112.835C461.776 146.807 472.125 185.328 472.125 228.4C472.125 271.471 461.776 310.599 441.076 345.784C420.377 380.363 392.068 407.965 356.149 428.591C320.838 448.61 280.962 458.619 236.519 458.619ZM235.606 347.604C258.132 347.604 277.918 342.751 294.964 333.045C312.619 322.732 326.013 308.779 335.145 291.187C344.886 272.988 349.756 252.362 349.756 229.31C349.756 206.257 344.886 185.935 335.145 168.342C325.404 150.75 312.011 137.1 294.964 127.394C277.918 117.081 258.132 111.925 235.606 111.925C213.689 111.925 194.208 117.081 177.161 127.394C160.115 137.1 146.721 150.75 136.98 168.342C127.239 185.935 122.369 206.257 122.369 229.31C122.369 252.362 127.239 272.988 136.98 291.187C146.721 308.779 160.115 322.732 177.161 333.045C194.208 342.751 213.689 347.604 235.606 347.604Z" fill="#3A5A40"/>
<path d="M756.438 458.619C711.995 458.619 671.815 448.61 635.895 428.591C600.585 407.965 572.276 380.363 550.968 345.784C530.268 310.599 519.919 271.471 519.919 228.4C519.919 185.328 530.268 146.807 550.968 112.835C571.667 78.2565 599.976 50.9577 635.895 30.9386C671.815 10.3129 711.691 0 755.525 0C800.576 0 840.757 10.3129 876.067 30.9386C911.987 50.9577 940.296 78.2565 960.995 112.835C981.694 146.807 992.044 185.328 992.044 228.4C992.044 271.471 981.694 310.599 960.995 345.784C940.296 380.363 911.987 407.965 876.067 428.591C840.757 448.61 800.88 458.619 756.438 458.619ZM755.525 347.604C778.05 347.604 797.836 342.751 814.883 333.045C832.538 322.732 845.932 308.779 855.064 291.187C864.805 272.988 869.675 252.362 869.675 229.31C869.675 206.257 864.805 185.935 855.064 168.342C845.323 150.75 831.929 137.1 814.883 127.394C797.836 117.081 778.05 111.925 755.525 111.925C733.608 111.925 714.126 117.081 697.08 127.394C680.033 137.1 666.64 150.75 656.899 168.342C647.158 185.935 642.288 206.257 642.288 229.31C642.288 252.362 647.158 272.988 656.899 291.187C666.64 308.779 680.033 322.732 697.08 333.045C714.126 342.751 733.608 347.604 755.525 347.604Z" fill="#3A5A40"/>
<path d="M395.402 165.158H583.907V316.817H395.402V165.158Z" fill="#3A5A40"/>
</svg>
